Coordinates
version=1
nRows=16
nColumns=38
inDegrees=no

Units are S.I. units (second, meters, Newtons, ...)
If the header above contains a line with 'inDegrees', this indicates whether rotational values are in degrees (yes) or radians (no).

endheader
time	pelvis_tilt	pelvis_list	pelvis_rotation	pelvis_tx	pelvis_ty	pelvis_tz	hip_flexion_r	hip_adduction_r	hip_rotation_r	knee_angle_r	ankle_angle_r	subtalar_angle_r	mtp_angle_r	hip_flexion_l	hip_adduction_l	hip_rotation_l	knee_angle_l	ankle_angle_l	subtalar_angle_l	mtp_angle_l	lumbar_extension	lumbar_bending	lumbar_rotation	arm_flex_r	arm_add_r	arm_rot_r	elbow_flex_r	pro_sup_r	wrist_flex_r	wrist_dev_r	arm_flex_l	arm_add_l	arm_rot_l	elbow_flex_l	pro_sup_l	wrist_flex_l	wrist_dev_l
0.15	-0.0182831	0.0107101	-0.114334	1.06608	1.0167	-0.331063	0.467563	0.0474844	-0.0795866	-0.311924	-0.192763	0.0584262	0.000246273	-0.116985	0.186736	0.0582837	-1.04924	-0.320849	0.00597459	0.00053478	-0.202918	0.0485585	-0.106082	-0.815037	-0.113303	-0.317355	1.48015	1.19752	0.0308973	-0.0461841	-0.497826	-0.269214	0.120861	2.40524	1.58433	0.0497249	-0.057201
0.158333	-0.00119471	0.0015488	-0.119047	1.06635	1.01283	-0.330047	0.450077	0.0639475	-0.0375628	-0.365938	-0.148946	0.0584262	0.000246273	-0.106647	0.169329	0.0262405	-1.1326	-0.319191	0.00597459	0.00053478	-0.223502	0.0566059	-0.0949574	-0.802744	-0.120159	-0.307178	1.47723	1.19253	0.0308973	-0.0461841	-0.515934	-0.260862	0.114974	2.37525	1.60193	0.0497249	-0.057201
0.166667	0.0134084	-0.0064382	-0.122629	1.06637	1.00811	-0.329228	0.435547	0.0793021	-0.00229619	-0.422376	-0.0973911	0.0584262	0.000246273	-0.0919125	0.152767	-0.00163982	-1.21532	-0.312509	0.00597459	0.00053478	-0.241487	0.0638135	-0.0844851	-0.787736	-0.127056	-0.295263	1.47219	1.18984	0.0308973	-0.0461841	-0.533376	-0.252722	0.1082	2.34282	1.61825	0.0497249	-0.057201
0.175	0.025513	-0.0132323	-0.125082	1.0661	1.0026	-0.328582	0.423956	0.0935057	0.026229	-0.481063	-0.0385151	0.0584262	0.000246273	-0.0727462	0.137108	-0.0253266	-1.29736	-0.300861	0.00597459	0.00053478	-0.256864	0.0701603	-0.0746547	-0.769995	-0.133978	-0.281609	1.46503	1.18942	0.0308973	-0.0461841	-0.550109	-0.2448	0.100555	2.30794	1.63319	0.0497249	-0.057201
0.183333	0.0350957	-0.0188011	-0.126428	1.06552	0.996403	-0.32809	0.415216	0.106464	0.048129	-0.541457	0.0264396	0.0584262	0.000246273	-0.0490547	0.122486	-0.0447674	-1.37858	-0.284477	0.00597459	0.00053478	-0.269633	0.0756089	-0.0654154	-0.749469	-0.14088	-0.266217	1.45578	1.19111	0.0308973	-0.0461841	-0.566004	-0.237107	0.0920947	2.27058	1.64642	0.0497249	-0.057201
0.191667	0.0421494	-0.0231349	-0.126723	1.0646	0.989652	-0.327737	0.409079	0.118067	0.0637349	-0.602547	0.0953067	0.0584262	0.000246273	-0.0207177	0.109055	-0.0599403	-1.45865	-0.263866	0.00597459	0.00053478	-0.279831	0.0801359	-0.0566411	-0.726082	-0.147678	-0.249113	1.44455	1.19459	0.0308973	-0.0461841	-0.58083	-0.229653	0.0829457	2.23072	1.6573	0.0497249	-0.057201
0.2	0.0467342	-0.0262926	-0.12607	1.06336	0.982495	-0.327509	0.405042	0.128242	0.0736762	-0.662875	0.165274	0.0584262	0.000246273	0.0123348	0.0968967	-0.070927	-1.53703	-0.239894	0.00597459	0.00053478	-0.287587	0.0837755	-0.0481044	-0.699773	-0.154252	-0.230394	1.43159	1.19935	0.0308973	-0.0461841	-0.594286	-0.22245	0.073339	2.18843	1.66495	0.0497249	-0.057201
0.208333	0.0490456	-0.0284266	-0.124621	1.06182	0.975127	-0.327388	0.402284	0.136975	0.0788951	-0.720683	0.233435	0.0584262	0.000246273	0.0500121	0.0859565	-0.0779732	-1.61297	-0.213752	0.00597459	0.00053478	-0.293168	0.0866168	-0.0394829	-0.670561	-0.160457	-0.210273	1.41738	1.2047	0.0308973	-0.0461841	-0.606066	-0.215505	0.0636177	2.14391	1.66837	0.0497249	-0.057201
0.216667	0.0494163	-0.0297603	-0.122576	1.05998	0.967786	-0.327353	0.399674	0.144284	0.0805833	-0.774133	0.297347	0.0584262	0.000246273	0.0919679	0.0760406	-0.0815263	-1.68547	-0.186833	0.00597459	0.00053478	-0.296996	0.0887644	-0.030391	-0.638628	-0.166133	-0.189128	1.40269	1.20986	0.0308973	-0.0461841	-0.615961	-0.208834	0.0542026	2.09766	1.66684	0.0497249	-0.057201
0.225	0.0483008	-0.030511	-0.120171	1.05786	0.96073	-0.327374	0.395886	0.15017	0.0800577	-0.821533	0.355375	0.0584262	0.000246273	0.137582	0.0668687	-0.0822337	-1.75333	-0.160536	0.00597459	0.00053478	-0.299604	0.0902794	-0.0204351	-0.604388	-0.171113	-0.167539	1.38858	1.21419	0.0308973	-0.0461841	-0.62395	-0.202458	0.0455039	2.05048	1.66027	0.0497249	-0.057201
0.233333	0.0462094	-0.0308244	-0.117661	1.05549	0.954208	-0.327421	0.389589	0.154553	0.0786077	-0.86152	0.406752	0.0584262	0.000246273	0.18601	0.0581731	-0.0808962	-1.81525	-0.136047	0.00597459	0.00053478	-0.301534	0.0911143	-0.00927979	-0.568528	-0.175232	-0.146297	1.37638	1.21731	0.0308973	-0.0461841	-0.630273	-0.196408	0.0378024	2.00351	1.64941	0.0497249	-0.057201
0.241667	0.0436371	-0.0306992	-0.115288	1.05294	0.948437	-0.327469	0.379657	0.157247	0.0773462	-0.893167	0.451378	0.0584262	0.000246273	0.236299	0.0497909	-0.0783845	-1.86995	-0.114158	0.00597459	0.00053478	-0.303214	0.0910975	0.00329014	-0.531981	-0.178328	-0.126357	1.36752	1.21928	0.0308973	-0.0461841	-0.635442	-0.190712	0.0311336	1.9582	1.63579	0.0497249	-0.057201
0.25	0.0409504	-0.0299871	-0.11325	1.05032	0.943591	-0.327499	0.365355	0.157966	0.0770967	-0.916005	0.489522	0.0584262	0.000246273	0.287531	0.0417196	-0.0755397	-1.91622	-0.0951711	0.00597459	0.00053478	-0.304846	0.0899524	0.0173233	-0.495846	-0.180256	-0.108735	1.36345	1.22059	0.0308973	-0.0461841	-0.640189	-0.185375	0.0252222	1.91617	1.62147	0.0497249	-0.057201
0.258333	0.0383029	-0.028439	-0.11167	1.04772	0.93979	-0.327504	0.346436	0.156381	0.0783357	-0.929987	0.521515	0.0584262	0.000246273	0.338934	0.034114	-0.0730809	-1.95309	-0.0789246	0.00597459	0.00053478	-0.306351	0.0873595	0.0326886	-0.461269	-0.180905	-0.0943688	1.36534	1.22207	0.0308973	-0.0461841	-0.645362	-0.180368	0.0194986	1.87904	1.60868	0.0497249	-0.057201
0.266667	0.0356182	-0.0257756	-0.110574	1.04527	0.937103	-0.327489	0.323137	0.152194	0.0811903	-0.935402	0.547532	0.0584262	0.000246273	0.389943	0.0272359	-0.0715404	-1.97987	-0.0649228	0.00597459	0.00053478	-0.307377	0.0830385	0.0490969	-0.429309	-0.180229	-0.08396	1.374	1.22475	0.0308973	-0.0461841	-0.651787	-0.175635	0.0132081	1.84825	1.59929	0.0497249	-0.057201
0.275	0.0326421	-0.0217554	-0.109894	1.04305	0.935551	-0.327463	0.296075	0.145209	0.0854758	-0.932784	0.567473	0.0584262	0.000246273	0.440163	0.0213933	-0.0712346	-1.99617	-0.0525311	0.00597459	0.00053478	-0.307395	0.0768128	0.0661421	-0.400828	-0.178272	-0.0778395	1.3897	1.22968	0.0308973	-0.0461841	-0.660135	-0.171107	0.0055749	1.82489	1.59459	0.0497249	-0.057201
